# Blender v2.82 (sub 7) OBJ File: 'cube.blend'
# www.blender.org
mtllib Edge_4.mtl
o Edge_4
v -1.250000 -1.025000 1.025000
v -1.250000 -0.975000 1.025000
v -1.250000 -1.025000 0.975000
v -1.250000 -0.975000 0.975000
v 1.250000 -1.025000 1.025000
v 1.250000 -0.975000 1.025000
v 1.250000 -1.025000 0.975000
v 1.250000 -0.975000 0.975000
vt 0.729167 0.562500
vt 0.687500 0.562500
vt 0.687500 0.520834
vt 0.729167 0.520834
vt 0.395834 0.187500
vt 0.395834 0.229167
vt 0.354167 0.229167
vt 0.354167 0.187500
vt 0.562500 0.729167
vt 0.520833 0.729167
vt 0.520833 0.687500
vt 0.562500 0.687500
vt 0.687500 0.895833
vt 0.687500 0.854167
vt 0.729167 0.854167
vt 0.729167 0.895833
vt 0.354167 0.687500
vt 0.395834 0.687500
vt 0.395834 0.729167
vt 0.354167 0.729167
vt 0.687500 0.354167
vt 0.729167 0.354167
vt 0.729167 0.395834
vt 0.687500 0.395834
vn -1.0000 0.0000 0.0000
vn 0.0000 0.0000 -1.0000
vn 1.0000 0.0000 0.0000
vn 0.0000 0.0000 1.0000
vn 0.0000 -1.0000 0.0000
vn 0.0000 1.0000 0.0000
usemtl None
s off
f 1/1/1 2/2/1 4/3/1 3/4/1
f 3/5/2 4/6/2 8/7/2 7/8/2
f 7/9/3 8/10/3 6/11/3 5/12/3
f 5/13/4 6/14/4 2/15/4 1/16/4
f 3/17/5 7/18/5 5/19/5 1/20/5
f 8/21/6 4/22/6 2/23/6 6/24/6
