# Blender v2.82 (sub 7) OBJ File: 'cube.blend'
# www.blender.org
mtllib Edge_5.mtl
o Edge_5
v -1.250000 -1.025000 -0.975000
v -1.250000 -0.975000 -0.975000
v -1.250000 -1.025000 -1.025000
v -1.250000 -0.975000 -1.025000
v 1.250000 -1.025000 -0.975000
v 1.250000 -0.975000 -0.975000
v 1.250000 -1.025000 -1.025000
v 1.250000 -0.975000 -1.025000
vt 0.812500 0.145833
vt 0.770834 0.145833
vt 0.770834 0.104167
vt 0.812500 0.104167
vt 0.854167 0.645833
vt 0.854167 0.604167
vt 0.895833 0.604167
vt 0.895833 0.645833
vt 0.812500 0.062500
vt 0.770834 0.062500
vt 0.770834 0.020833
vt 0.812500 0.020833
vt 0.104167 0.395834
vt 0.104167 0.354167
vt 0.145833 0.354167
vt 0.145833 0.395834
vt 0.645834 0.729167
vt 0.604167 0.729167
vt 0.604167 0.687500
vt 0.645834 0.687500
vt 0.729167 0.645833
vt 0.687500 0.645833
vt 0.687500 0.604167
vt 0.729167 0.604167
vn -1.0000 0.0000 0.0000
vn 0.0000 0.0000 -1.0000
vn 1.0000 0.0000 0.0000
vn 0.0000 0.0000 1.0000
vn 0.0000 -1.0000 0.0000
vn 0.0000 1.0000 0.0000
usemtl None
s off
f 1/1/1 2/2/1 4/3/1 3/4/1
f 3/5/2 4/6/2 8/7/2 7/8/2
f 7/9/3 8/10/3 6/11/3 5/12/3
f 5/13/4 6/14/4 2/15/4 1/16/4
f 3/17/5 7/18/5 5/19/5 1/20/5
f 8/21/6 4/22/6 2/23/6 6/24/6
