# Blender v2.82 (sub 7) OBJ File: 'Voxel_Blender_Project.blend'
# www.blender.org
mtllib Vertex_7.mtl
o Vertex_7
v -1.050000 -1.050000 1.050000
v -1.050000 -0.950000 1.050000
v -1.050000 -1.050000 0.950000
v -1.050000 -0.950000 0.950000
v -0.950000 -1.050000 1.050000
v -0.950000 -0.950000 1.050000
v -0.950000 -1.050000 0.950000
v -0.950000 -0.950000 0.950000
vt 0.562500 0.895833
vt 0.520833 0.895833
vt 0.520833 0.854167
vt 0.562500 0.854167
vt 0.354167 0.895833
vt 0.354167 0.854167
vt 0.395833 0.854167
vt 0.395833 0.895833
vt 0.145833 0.812500
vt 0.104167 0.812500
vt 0.104167 0.770834
vt 0.145833 0.770834
vt 0.020833 0.895833
vt 0.020833 0.854167
vt 0.062500 0.854167
vt 0.062500 0.895833
vt 0.770833 0.437500
vt 0.812500 0.437500
vt 0.812500 0.479167
vt 0.770833 0.479167
vt 0.812500 0.312500
vt 0.770833 0.312500
vt 0.770833 0.270834
vt 0.812500 0.270834
vn -1.0000 0.0000 0.0000
vn 0.0000 0.0000 -1.0000
vn 1.0000 0.0000 0.0000
vn 0.0000 0.0000 1.0000
vn 0.0000 -1.0000 0.0000
vn 0.0000 1.0000 0.0000
usemtl None
s off
f 1/1/1 2/2/1 4/3/1 3/4/1
f 3/5/2 4/6/2 8/7/2 7/8/2
f 7/9/3 8/10/3 6/11/3 5/12/3
f 5/13/4 6/14/4 2/15/4 1/16/4
f 3/17/5 7/18/5 5/19/5 1/20/5
f 8/21/6 4/22/6 2/23/6 6/24/6
